<svg width="240" height="148" fill="none" xmlns="http://www.w3.org/2000/svg"><path d="M3.656 4.438H.406A.418.418 0 000 4.843v3.25c0 .228.178.406.406.406a.418.418 0 00.406-.406V5.25h2.844a.418.418 0 00.406-.406.437.437 0 00-.406-.407zm0 10.562H.812v-2.844a.437.437 0 00-.406-.406.418.418 0 00-.406.406v3.25a.4.4 0 00.406.406h3.25a.418.418 0 00.406-.406.437.437 0 00-.406-.406zm7.313-3.25a.418.418 0 00-.406.406V15H7.719a.418.418 0 00-.407.406.4.4 0 00.407.406h3.25a.418.418 0 00.406-.406v-3.25a.437.437 0 00-.406-.406zm0-7.313h-3.25a.418.418 0 00-.407.407c0 .228.178.406.407.406h2.843v2.844c0 .228.178.406.407.406a.418.418 0 00.406-.406v-3.25a.437.437 0 00-.406-.407zm219.674.077c-.127-.026-.229-.051-.331-.051-.203 0-.406.05-.558.203l-3.428 3.047h-2.107c-.686 0-1.219.533-1.219 1.219v2.412c0 .685.533 1.219 1.219 1.219h2.107l3.428 3.046a.885.885 0 00.558.204.879.879 0 00.331-.077.813.813 0 00.482-.736V5.275c0-.33-.203-.609-.482-.761zM230.287 15l-3.656-3.25h-2.412a.418.418 0 01-.407-.406V8.906c0-.228.178-.406.407-.406h2.412l3.631-3.225.025 9.725zm5.916-10.486a.39.39 0 00-.558.127.39.39 0 00.126.558c1.651 1.117 2.667 2.97 2.667 4.926 0 1.98-1.016 3.834-2.667 4.951a.39.39 0 00-.126.559c.076.127.203.178.355.178.076 0 .152 0 .203-.051 1.904-1.27 3.047-3.377 3.047-5.637 0-2.285-1.143-4.342-3.047-5.611zm-1.549 1.625a.39.39 0 00-.558.127.406.406 0 00.101.558c1.117.737 1.803 1.98 1.803 3.301 0 1.346-.686 2.59-1.803 3.326a.406.406 0 00-.101.559.37.37 0 00.33.178c.076 0 .152 0 .228-.051 1.346-.914 2.158-2.412 2.158-4.012 0-1.6-.812-3.072-2.158-3.986zm-1.345 2.03a.391.391 0 00-.559.128.406.406 0 00.102.558c.431.28.71.762.71 1.27 0 .533-.279 1.016-.71 1.295a.406.406 0 00-.102.559.37.37 0 00.33.177c.076 0 .152 0 .229-.05.66-.458 1.066-1.194 1.066-1.981 0-.787-.406-1.498-1.066-1.955z" fill="#000"/><g clip-path="url(#clip0_239_13464)"><g filter="url(#filter0_d_239_13464)"><circle cx="87.5" cy="136.5" r="11.5" fill="#fff"/></g><path d="M90.313 135.5a.32.32 0 00-.313.312v.938a2.51 2.51 0 01-2.676 2.5C85.996 139.172 85 138 85 136.672v-.86a.336.336 0 00-.313-.312.32.32 0 00-.312.312v.84c0 1.621 1.191 3.047 2.813 3.203v1.27h-1.25a.321.321 0 00-.313.313c0 .175.137.312.313.312h3.124a.321.321 0 00.313-.312.336.336 0 00-.313-.313h-1.25v-1.27a3.133 3.133 0 002.813-3.105v-.938a.336.336 0 00-.313-.312zm-2.813 3.125c1.035 0 1.875-.84 1.875-1.875v-3.125c0-1.016-.84-1.875-1.875-1.875-1.035 0-1.875.84-1.875 1.875v3.125c0 1.035.84 1.875 1.875 1.875zm-1.25-5c0-.684.547-1.25 1.25-1.25.684 0 1.25.566 1.25 1.25v3.125c0 .703-.566 1.25-1.25 1.25-.703 0-1.25-.547-1.25-1.25v-3.125z" fill="#1F1D0D"/></g><g clip-path="url(#clip1_239_13464)"><g filter="url(#filter1_d_239_13464)"><circle cx="120.5" cy="136.5" r="11.5" fill="#fff"/></g><path d="M125.648 133.703a.635.635 0 00-.644.039l-2.012 1.406a.333.333 0 00-.078.45c.098.136.293.156.449.058l2.012-1.406v5l-2.012-1.406a.332.332 0 00-.449.078.332.332 0 00.078.449l2.012 1.406a.625.625 0 00.371.098c.098 0 .195-.02.273-.059a.652.652 0 00.352-.566v-5c0-.234-.137-.43-.352-.547zM121 133h-5c-.703 0-1.25.566-1.25 1.25v5c0 .703.547 1.25 1.25 1.25h5c.684 0 1.25-.547 1.25-1.25v-5c0-.684-.566-1.25-1.25-1.25zm.625 6.25a.63.63 0 01-.625.625h-5a.616.616 0 01-.625-.625v-5a.63.63 0 01.625-.625h5c.332 0 .625.293.625.625v5z" fill="#1F1D0D"/></g><g clip-path="url(#clip2_239_13464)"><g filter="url(#filter2_d_239_13464)"><circle cx="153.5" cy="136.5" r="11.5" fill="#FF6262"/></g><path d="M151.36 132.726l.801 2.016c.152.346.525.581.911.525l1.022-.083a6.368 6.368 0 010 3.453l-1.022-.11a.902.902 0 00-.897.566l-.815 2.002a.896.896 0 00.359 1.078l1.602.994c.345.235.787.18 1.091-.124 3.383-3.384 3.383-8.881 0-12.264a.882.882 0 00-1.105-.138l-1.588 1.008c-.359.221-.511.677-.359 1.077zm2.292-1.547a.255.255 0 01.332.028c3.135 3.135 3.121 8.259-.014 11.394-.097.096-.221.11-.318.041l-1.602-.994c-.014-.014-.041-.014-.055-.028-.069-.069-.083-.193-.055-.304l.801-1.988c.055-.111.152-.18.276-.166l1.257.124a.302.302 0 00.331-.221 6.709 6.709 0 00-.014-4.323c-.027-.138-.165-.22-.317-.207l-1.257.125c-.124.013-.221-.056-.276-.166l-.801-1.989c-.042-.124-.014-.262.11-.331l1.602-.995z" fill="#1F1D0D"/></g><defs><clipPath id="clip0_239_13464"><path fill="#fff" transform="translate(76 125)" d="M0 0h23v23H0z"/></clipPath><clipPath id="clip1_239_13464"><path fill="#fff" transform="translate(109 125)" d="M0 0h23v23H0z"/></clipPath><clipPath id="clip2_239_13464"><path fill="#fff" transform="translate(142 125)" d="M0 0h23v23H0z"/></clipPath><filter id="filter0_d_239_13464" x="48" y="97" width="83" height="83" filterUnits="userSpaceOnUse" color-interpolation-filters="sRGB"><feFlood flood-opacity="0" result="BackgroundImageFix"/><feColorMatrix in="SourceAlpha" values="0 0 0 0 0 0 0 0 0 0 0 0 0 0 0 0 0 0 127 0" result="hardAlpha"/><feOffset dx="2" dy="2"/><feGaussianBlur stdDeviation="15"/><feColorMatrix values="0 0 0 0 0.121569 0 0 0 0 0.113725 0 0 0 0 0.0509804 0 0 0 0.0894963 0"/><feBlend in2="BackgroundImageFix" result="effect1_dropShadow_239_13464"/><feBlend in="SourceGraphic" in2="effect1_dropShadow_239_13464" result="shape"/></filter><filter id="filter1_d_239_13464" x="81" y="97" width="83" height="83" filterUnits="userSpaceOnUse" color-interpolation-filters="sRGB"><feFlood flood-opacity="0" result="BackgroundImageFix"/><feColorMatrix in="SourceAlpha" values="0 0 0 0 0 0 0 0 0 0 0 0 0 0 0 0 0 0 127 0" result="hardAlpha"/><feOffset dx="2" dy="2"/><feGaussianBlur stdDeviation="15"/><feColorMatrix values="0 0 0 0 0.121569 0 0 0 0 0.113725 0 0 0 0 0.0509804 0 0 0 0.0894963 0"/><feBlend in2="BackgroundImageFix" result="effect1_dropShadow_239_13464"/><feBlend in="SourceGraphic" in2="effect1_dropShadow_239_13464" result="shape"/></filter><filter id="filter2_d_239_13464" x="114" y="97" width="83" height="83" filterUnits="userSpaceOnUse" color-interpolation-filters="sRGB"><feFlood flood-opacity="0" result="BackgroundImageFix"/><feColorMatrix in="SourceAlpha" values="0 0 0 0 0 0 0 0 0 0 0 0 0 0 0 0 0 0 127 0" result="hardAlpha"/><feOffset dx="2" dy="2"/><feGaussianBlur stdDeviation="15"/><feColorMatrix values="0 0 0 0 0.121569 0 0 0 0 0.113725 0 0 0 0 0.0509804 0 0 0 0.05 0"/><feBlend in2="BackgroundImageFix" result="effect1_dropShadow_239_13464"/><feBlend in="SourceGraphic" in2="effect1_dropShadow_239_13464" result="shape"/></filter></defs></svg>